<svg xmlns="http://www.w3.org/2000/svg" xmlns:svg="http://www.w3.org/2000/svg" xmlns:xlink="http://www.w3.org/1999/xlink" id="svg2" width="128" height="128" version="1.1" viewBox="0 0 128 128" xml:space="preserve"><metadata id="metadata28"/><defs id="defs26"><linearGradient id="linearGradient3799"><stop id="stop3801" style="stop-color:red;stop-opacity:1" offset="0"/><stop id="stop3803" style="stop-color:#400;stop-opacity:1" offset="1"/></linearGradient><linearGradient id="linearGradient3777"><stop id="stop3779" style="stop-color:#ffd300;stop-opacity:1" offset="0"/><stop id="stop3781" style="stop-color:#a07100;stop-opacity:1" offset="1"/></linearGradient><linearGradient id="linearGradient3767"><stop id="stop3769" style="stop-color:#000;stop-opacity:1" offset="0"/></linearGradient><linearGradient id="linearGradient3761"><stop id="stop3763" style="stop-color:#ffd300;stop-opacity:1" offset="0"/></linearGradient><linearGradient id="linearGradient3797" x1="16" x2="225" y1="126" y2="126" gradientUnits="userSpaceOnUse" xlink:href="#linearGradient3777"/><linearGradient id="linearGradient3805" x1="-21" x2="279" y1="128.5" y2="128.5" gradientUnits="userSpaceOnUse" xlink:href="#linearGradient3799"/><linearGradient id="linearGradient3833" x1="16" x2="225" y1="126" y2="126" gradientUnits="userSpaceOnUse" xlink:href="#linearGradient3777"/><linearGradient id="linearGradient3835" x1="16" x2="225" y1="126" y2="126" gradientUnits="userSpaceOnUse" xlink:href="#linearGradient3777"/><linearGradient id="linearGradient3837" x1="16" x2="225" y1="126" y2="126" gradientUnits="userSpaceOnUse" xlink:href="#linearGradient3777"/><linearGradient id="linearGradient3839" x1="16" x2="225" y1="126" y2="126" gradientUnits="userSpaceOnUse" xlink:href="#linearGradient3777"/><linearGradient id="linearGradient3841" x1="16" x2="225" y1="126" y2="126" gradientUnits="userSpaceOnUse" xlink:href="#linearGradient3777"/><linearGradient id="linearGradient3843" x1="16" x2="225" y1="126" y2="126" gradientUnits="userSpaceOnUse" xlink:href="#linearGradient3777"/><linearGradient id="linearGradient3845" x1="16" x2="225" y1="126" y2="126" gradientUnits="userSpaceOnUse" xlink:href="#linearGradient3777"/><linearGradient id="linearGradient3852" x1="16" x2="225" y1="126" y2="126" gradientUnits="userSpaceOnUse" xlink:href="#linearGradient3777"/><linearGradient id="linearGradient3854" x1="16" x2="225" y1="126" y2="126" gradientUnits="userSpaceOnUse" xlink:href="#linearGradient3777"/><linearGradient id="linearGradient3856" x1="16" x2="225" y1="126" y2="126" gradientUnits="userSpaceOnUse" xlink:href="#linearGradient3777"/><linearGradient id="linearGradient3862" x1="16" x2="225" y1="126" y2="126" gradientUnits="userSpaceOnUse" xlink:href="#linearGradient3777"/><linearGradient id="linearGradient3864" x1="16" x2="225" y1="126" y2="126" gradientUnits="userSpaceOnUse" xlink:href="#linearGradient3777"/><linearGradient id="linearGradient3866" x1="-21" x2="279" y1="128.5" y2="128.5" gradientUnits="userSpaceOnUse" xlink:href="#linearGradient3799"/><linearGradient id="linearGradient3868" x1="-21" x2="279" y1="128.5" y2="128.5" gradientUnits="userSpaceOnUse" xlink:href="#linearGradient3799"/><linearGradient id="linearGradient3870" x1="-21" x2="279" y1="128.5" y2="128.5" gradientUnits="userSpaceOnUse" xlink:href="#linearGradient3799"/><linearGradient id="linearGradient3876" x1="-21" x2="279" y1="128.5" y2="128.5" gradientUnits="userSpaceOnUse" xlink:href="#linearGradient3799"/><linearGradient id="linearGradient3878" x1="-21" x2="279" y1="128.5" y2="128.5" gradientUnits="userSpaceOnUse" xlink:href="#linearGradient3799"/><linearGradient id="linearGradient3880" x1="-21" x2="279" y1="128.5" y2="128.5" gradientUnits="userSpaceOnUse" xlink:href="#linearGradient3799"/><linearGradient id="linearGradient3885" x1="-21" x2="279" y1="128.5" y2="128.5" gradientUnits="userSpaceOnUse" xlink:href="#linearGradient3799"/><linearGradient id="linearGradient3887" x1="-21" x2="279" y1="128.5" y2="128.5" gradientUnits="userSpaceOnUse" xlink:href="#linearGradient3799"/><linearGradient id="linearGradient3924" x1="65.92" x2="89.047" y1="69.057" y2="92.379" gradientUnits="userSpaceOnUse" spreadMethod="pad" xlink:href="#linearGradient3777"/><linearGradient id="linearGradient3932" x1="118.39" x2="173.78" y1="128.5" y2="236.975" gradientUnits="userSpaceOnUse" xlink:href="#linearGradient3799"/></defs><polygon id="polygon11" points="15 102.333 100.333 100.333 130.5 19.333 158 100.333 243 102.667 175.819 154.676 199.667 237.667 129.5 188.333 57.667 237.667 82.667 154" transform="matrix(0.5,0,0,0.5,-0.19491524,0.3898305)" style="fill:url(#linearGradient3932);fill-opacity:1;stroke:#000;stroke-width:8;stroke-miterlimit:10"/><path id="path3813" d="m 37.638585,60.889831 c -0.1665,0.8335 8.555,9.8815 9.3335,9.6665 0.43,-0.1185 7,-6.1665 7,-6.1665 l 17.1665,18.5 c 0,0 -4.6665,2.6665 -9.6665,2.1665 -5,-0.5 -7.95,-2.5445 -13.6665,-8.833 -1.667,-1.8335 -4.167,1.1665 -4.167,1.1665 l -3,-0.1665 c 0,0 -3.6665,1.333 -2.5,3.6665 0.707,1.414 -17.2395,7.364499 -10.3335,15.3335 6.5,7.499999 14.6665,-8 15.8335,-8.8335 1.167,-0.8335 10.6665,18.999999 37.1665,7 0,0 3.6425,3.798 4,3.826499 0.519,0.042 9.5,-7.951499 9.5,-8.659999 0,-0.604 -5,-5.333 -5,-5.333 0,0 11.999995,-14.167 -1.573,-34.645001 -0.9945,-1.500499 -6.1265,-8.296999 -13.031,-12.773499 -4.0045,-2.596 -9.095,-5.647501 -16.896,-8.248501 -2.5,-0.8335 2.992,3.7 9.033,9.798501 3.533,3.567 6.7525,7.9 8.967,10.868 7.8335,10.5 6.8235,20.2185 3.8335,24.999999 0,0 -8.916,-9.575 -17,-18.3335 0,0 7.4165,-7.3335 7,-7.8335 -1.307,-1.5695 -1.1715,-1.673 -2.667,-2.6665 0,0 -1.793,0.558 -4.5125,0.661 -3.838,0.1455 -9.0255,-0.118499 -9.3205,0.172 -1.0025,0.988 -15.25,13.417501 -15.5,14.667501 z" style="fill:url(#linearGradient3924);fill-opacity:1;fill-rule:nonzero;stroke:#000;stroke-width:2.20000005;stroke-miterlimit:10;stroke-dasharray:none"/></svg>